<svg id="svg" version="1.1" xmlns="http://www.w3.org/2000/svg" xmlns:xlink="http://www.w3.org/1999/xlink" width="400" height="50" viewBox="0, 0, 400,103.47003154574132"><g id="svgg"><path id="path0" d="M143.261 16.417 L 143.152 17.000 141.753 17.000 C 139.955 17.000,139.500 17.165,139.500 17.819 C 139.500 18.270,139.445 18.318,138.875 18.365 C 138.307 18.412,138.245 18.465,138.199 18.949 C 138.154 19.412,138.078 19.487,137.615 19.532 C 137.087 19.583,137.083 19.590,136.944 20.776 C 136.806 21.965,136.804 21.968,136.236 22.075 L 135.667 22.182 135.667 23.997 L 135.667 25.812 135.132 25.864 C 134.468 25.929,134.373 26.216,134.350 28.208 C 134.334 29.614,134.320 29.667,133.950 29.667 C 133.243 29.667,133.167 29.930,133.167 32.367 L 133.167 34.667 132.601 34.667 C 131.860 34.667,131.833 34.763,131.833 37.420 L 131.833 39.646 131.292 39.698 L 130.750 39.750 130.667 42.250 L 130.583 44.750 130.000 44.833 L 129.417 44.917 129.371 47.948 L 129.326 50.979 128.789 51.031 C 128.144 51.094,128.049 51.392,128.020 53.458 L 128.000 54.833 127.417 54.833 L 126.833 54.833 126.833 56.750 L 126.833 58.667 126.272 58.667 C 125.615 58.667,125.505 59.017,125.502 61.125 C 125.500 62.204,125.466 62.333,125.180 62.333 C 124.543 62.333,124.333 62.523,124.333 63.101 C 124.333 63.576,124.273 63.667,123.958 63.669 C 123.440 63.673,123.237 63.841,123.106 64.375 L 122.994 64.833 119.538 64.848 C 114.883 64.868,114.477 64.928,114.297 65.625 L 114.157 66.167 100.912 66.167 L 87.667 66.167 87.664 65.792 C 87.659 64.994,87.549 64.964,84.352 64.872 L 81.333 64.786 81.333 64.236 C 81.333 63.722,81.294 63.683,80.709 63.635 C 80.161 63.590,80.075 63.522,80.000 63.083 C 79.919 62.605,79.867 62.577,78.800 62.433 C 77.712 62.287,77.683 62.270,77.634 61.766 C 77.588 61.301,77.522 61.245,76.958 61.198 L 76.333 61.147 76.333 60.229 C 76.333 59.048,76.128 58.667,75.494 58.667 C 75.029 58.667,75.000 58.628,75.000 58.000 C 75.000 57.349,74.986 57.333,74.417 57.333 L 73.833 57.333 73.833 55.928 C 73.833 54.113,73.670 53.667,73.004 53.667 L 72.500 53.667 72.500 51.750 L 72.500 49.833 72.905 49.833 C 73.673 49.833,73.833 49.459,73.833 47.665 L 73.833 46.021 74.375 45.969 L 74.917 45.917 74.966 44.708 C 75.012 43.561,75.035 43.500,75.410 43.500 C 76.127 43.500,76.333 43.328,76.333 42.732 C 76.333 42.200,76.367 42.167,76.899 42.167 C 77.474 42.167,77.667 41.957,77.667 41.330 C 77.667 41.103,77.811 41.007,78.208 40.969 C 78.703 40.921,78.755 40.862,78.802 40.292 C 78.852 39.684,78.872 39.667,79.510 39.667 C 80.149 39.667,80.167 39.651,80.167 39.083 L 80.167 38.500 81.736 38.500 C 83.692 38.500,83.833 38.448,83.833 37.733 L 83.833 37.168 100.208 37.126 L 116.583 37.083 116.635 36.458 L 116.687 35.833 117.927 35.833 L 119.167 35.833 119.167 35.269 L 119.167 34.705 120.250 34.637 C 121.571 34.552,121.638 34.490,121.770 33.230 C 121.869 32.282,121.905 32.215,122.396 32.070 L 122.917 31.917 122.961 27.050 L 123.005 22.183 122.444 22.077 C 121.894 21.974,121.879 21.950,121.733 20.870 C 121.592 19.831,121.555 19.761,121.077 19.639 C 120.698 19.542,120.531 19.372,120.411 18.963 C 120.252 18.423,120.237 18.416,119.125 18.367 C 118.020 18.319,118.000 18.310,118.000 17.859 C 118.000 16.957,118.938 17.000,99.147 17.000 C 79.063 17.000,80.167 16.955,80.167 17.768 L 80.167 18.333 77.667 18.333 L 75.167 18.333 75.167 18.917 L 75.167 19.500 73.625 19.502 C 71.527 19.505,71.333 19.570,71.333 20.269 L 71.333 20.833 70.083 20.833 L 68.833 20.833 68.833 21.388 L 68.833 21.943 67.625 22.097 C 66.420 22.250,66.417 22.251,66.364 22.792 C 66.315 23.302,66.275 23.333,65.656 23.333 C 65.022 23.333,65.000 23.352,65.000 23.895 C 65.000 24.422,64.958 24.464,64.333 24.564 C 63.703 24.665,63.667 24.703,63.667 25.252 L 63.667 25.833 62.875 25.836 C 61.779 25.839,61.333 25.984,61.333 26.339 C 61.333 26.881,61.137 27.167,60.766 27.167 C 60.296 27.167,60.000 27.467,60.000 27.942 C 60.000 28.238,59.879 28.341,59.432 28.425 C 58.791 28.545,58.673 28.797,58.669 30.042 L 58.667 30.833 58.083 30.833 C 57.515 30.833,57.500 30.851,57.500 31.490 C 57.500 32.128,57.483 32.148,56.875 32.198 L 56.250 32.250 56.201 33.458 L 56.152 34.667 55.669 34.667 C 55.059 34.667,55.010 34.754,54.889 36.059 C 54.793 37.084,54.766 37.138,54.269 37.280 L 53.750 37.429 53.704 39.798 L 53.658 42.167 53.182 42.167 C 52.300 42.167,52.315 42.003,52.368 51.074 C 52.421 60.192,52.382 59.825,53.292 59.831 C 53.657 59.833,53.667 59.878,53.667 61.649 C 53.667 63.568,53.708 63.667,54.514 63.667 C 54.793 63.667,54.833 63.792,54.833 64.653 C 54.833 65.986,54.924 66.167,55.594 66.167 L 56.152 66.167 56.201 67.375 C 56.250 68.581,56.251 68.583,56.749 68.640 C 57.388 68.713,57.494 68.895,57.497 69.925 C 57.500 70.845,57.701 71.167,58.273 71.167 C 58.584 71.167,58.655 71.271,58.698 71.792 C 58.747 72.383,58.784 72.419,59.375 72.468 C 59.966 72.517,60.000 72.551,60.000 73.093 C 60.000 73.636,60.031 73.667,60.573 73.667 C 61.115 73.667,61.149 73.701,61.198 74.292 C 61.247 74.883,61.284 74.919,61.875 74.968 C 62.466 75.017,62.500 75.051,62.500 75.593 C 62.500 76.137,62.530 76.167,63.083 76.167 C 63.589 76.167,63.667 76.220,63.667 76.570 C 63.667 77.293,63.837 77.500,64.434 77.500 C 64.969 77.500,65.000 77.532,65.000 78.081 C 65.000 78.631,65.037 78.669,65.667 78.769 C 66.207 78.856,66.333 78.944,66.333 79.238 C 66.333 79.826,66.664 80.000,67.783 80.000 L 68.833 80.000 68.833 80.566 C 68.833 81.244,69.010 81.333,70.347 81.333 L 71.333 81.333 71.333 81.917 L 71.333 82.500 72.583 82.500 L 73.833 82.500 73.833 82.994 C 73.833 83.720,74.212 83.833,76.645 83.833 L 78.812 83.833 78.864 84.375 L 78.917 84.917 108.417 84.917 L 137.917 84.917 138.076 84.375 C 138.203 83.944,138.324 83.833,138.668 83.833 C 139.227 83.833,139.500 83.549,139.500 82.967 C 139.500 82.544,139.556 82.500,140.083 82.500 L 140.667 82.500 140.667 81.260 L 140.667 80.020 141.292 79.968 L 141.917 79.917 141.963 77.469 L 142.009 75.020 142.546 74.969 L 143.083 74.917 143.129 72.458 L 143.176 70.000 143.638 70.000 C 144.397 70.000,144.500 69.749,144.500 67.907 L 144.500 66.215 145.042 66.060 L 145.583 65.905 145.667 63.494 L 145.750 61.083 146.275 61.032 C 146.965 60.965,146.995 60.821,146.998 57.542 L 147.000 54.833 147.467 54.833 C 148.290 54.833,148.333 54.666,148.333 51.467 L 148.333 48.500 148.909 48.500 L 149.485 48.500 149.534 49.708 L 149.583 50.917 150.208 50.968 L 150.833 51.020 150.833 52.260 L 150.833 53.500 151.417 53.500 L 152.000 53.500 152.000 54.989 C 152.000 56.881,152.158 57.333,152.822 57.333 L 153.319 57.333 153.368 58.542 L 153.417 59.750 153.940 59.801 C 154.462 59.852,154.463 59.852,154.579 61.092 L 154.695 62.333 155.264 62.333 L 155.833 62.333 155.833 63.583 L 155.833 64.833 156.493 64.833 L 157.153 64.833 157.201 66.125 L 157.250 67.417 157.792 67.469 L 158.333 67.521 158.333 68.561 C 158.333 69.713,158.505 70.000,159.193 70.000 C 159.647 70.000,159.653 70.012,159.701 71.208 L 159.750 72.417 160.292 72.469 L 160.833 72.521 160.833 73.823 C 160.833 75.870,160.931 76.167,161.604 76.167 L 162.167 76.167 162.167 77.409 L 162.167 78.652 162.740 78.759 C 163.296 78.864,163.317 78.895,163.419 79.808 C 163.565 81.115,163.593 81.167,164.151 81.167 C 164.603 81.167,164.651 81.221,164.698 81.792 C 164.747 82.381,164.785 82.420,165.366 82.468 C 165.944 82.516,165.984 82.556,166.032 83.134 C 166.079 83.692,166.134 83.755,166.615 83.801 C 167.078 83.846,167.154 83.922,167.199 84.385 C 167.245 84.868,167.307 84.921,167.875 84.968 C 168.445 85.016,168.500 85.064,168.500 85.514 C 168.500 86.287,168.855 86.333,174.750 86.333 C 180.661 86.333,181.000 86.288,181.000 85.504 L 181.000 85.000 181.986 85.000 C 183.432 85.000,183.466 84.971,183.596 83.652 L 183.710 82.500 184.272 82.500 C 184.799 82.500,184.833 82.465,184.833 81.935 C 184.833 81.425,184.888 81.360,185.398 81.264 C 186.033 81.145,186.161 80.877,186.164 79.659 C 186.167 78.950,186.201 78.892,186.708 78.743 C 187.248 78.584,187.250 78.580,187.299 77.375 L 187.348 76.167 187.906 76.167 C 188.576 76.167,188.667 75.986,188.667 74.653 C 188.667 73.735,188.693 73.667,189.050 73.667 C 189.660 73.667,189.833 73.347,189.833 72.217 C 189.833 71.216,189.852 71.167,190.238 71.167 C 190.997 71.167,191.167 70.786,191.167 69.081 L 191.167 67.520 191.792 67.468 L 192.417 67.417 192.465 66.125 L 192.514 64.833 193.090 64.833 L 193.667 64.833 193.667 63.593 L 193.667 62.353 194.292 62.302 L 194.917 62.250 194.966 61.042 L 195.015 59.833 195.591 59.833 L 196.167 59.833 196.167 58.583 L 196.167 57.333 196.661 57.333 C 197.296 57.333,197.500 56.952,197.500 55.761 C 197.500 54.911,197.531 54.833,197.875 54.831 C 198.527 54.826,198.648 54.618,198.700 53.412 L 198.750 52.250 199.275 52.199 C 199.872 52.141,199.994 51.876,199.998 50.625 L 200.000 49.833 200.662 49.833 L 201.324 49.833 201.371 52.292 L 201.417 54.750 201.954 54.802 L 202.491 54.854 202.537 57.302 L 202.583 59.750 203.208 59.802 L 203.833 59.853 203.833 62.343 L 203.833 64.833 204.396 64.833 L 204.959 64.833 205.030 67.845 C 205.105 71.048,205.136 71.158,205.954 71.164 C 206.318 71.167,206.325 71.210,206.371 73.625 L 206.417 76.083 206.958 76.136 C 207.496 76.187,207.500 76.195,207.500 77.083 C 207.500 78.387,207.711 78.833,208.329 78.833 L 208.833 78.833 208.833 79.982 C 208.833 81.207,208.920 81.333,209.764 81.333 C 210.113 81.333,210.167 81.411,210.167 81.917 C 210.167 82.472,210.194 82.500,210.750 82.500 C 211.302 82.500,211.333 82.530,211.333 83.066 C 211.333 83.743,211.511 83.833,212.836 83.833 L 213.812 83.833 213.864 84.375 L 213.917 84.917 245.816 84.959 C 279.512 85.003,278.167 85.034,278.167 84.230 C 278.167 83.839,278.190 83.833,279.820 83.833 C 281.865 83.833,282.000 83.786,282.000 83.066 L 282.000 82.500 283.250 82.500 L 284.500 82.500 284.500 81.924 L 284.500 81.348 285.708 81.299 L 286.917 81.250 286.968 80.625 L 287.020 80.000 288.242 80.000 C 289.521 80.000,289.667 79.913,289.667 79.153 C 289.667 78.899,289.786 78.833,290.250 78.833 C 290.819 78.833,290.833 78.817,290.833 78.167 L 290.833 77.500 291.761 77.500 C 292.945 77.500,293.333 77.295,293.333 76.671 C 293.333 76.250,293.401 76.181,293.865 76.136 C 294.303 76.093,294.421 75.991,294.530 75.566 C 294.631 75.174,294.795 75.012,295.207 74.894 C 295.657 74.766,295.759 74.648,295.802 74.203 C 295.848 73.734,295.915 73.667,296.338 73.667 C 296.961 73.667,297.167 73.278,297.167 72.104 L 297.167 71.187 297.792 71.135 C 298.353 71.089,298.422 71.032,298.466 70.574 C 298.507 70.163,298.619 70.034,299.050 69.907 C 299.575 69.753,299.584 69.732,299.633 68.625 C 299.681 67.520,299.690 67.500,300.141 67.500 C 300.840 67.500,301.000 67.217,301.000 65.977 L 301.000 64.854 301.542 64.802 L 302.083 64.750 302.131 62.958 C 302.177 61.193,302.184 61.167,302.577 61.167 C 303.530 61.167,303.500 61.496,303.500 51.085 C 303.500 40.569,303.533 41.000,302.738 41.000 L 302.178 41.000 302.130 39.125 L 302.083 37.250 301.549 37.198 L 301.014 37.147 300.965 35.948 L 300.917 34.750 300.292 34.698 L 299.667 34.647 299.667 33.407 L 299.667 32.167 299.105 32.167 L 298.543 32.167 298.430 31.015 C 298.313 29.836,298.195 29.667,297.486 29.667 C 297.234 29.667,297.167 29.548,297.167 29.101 C 297.167 28.504,296.960 28.333,296.236 28.333 C 295.887 28.333,295.833 28.256,295.833 27.750 C 295.833 27.194,295.806 27.167,295.250 27.167 C 294.744 27.167,294.667 27.113,294.667 26.764 C 294.667 26.040,294.496 25.833,293.899 25.833 C 293.366 25.833,293.333 25.801,293.333 25.260 C 293.333 24.718,293.299 24.684,292.708 24.635 C 292.152 24.589,292.077 24.529,292.027 24.084 C 291.953 23.433,291.776 23.339,290.625 23.336 C 289.674 23.333,289.667 23.329,289.667 22.839 C 289.667 22.194,289.284 22.000,288.011 22.000 L 287.000 22.000 287.000 21.417 L 287.000 20.833 285.750 20.833 L 284.500 20.833 284.500 20.268 C 284.500 19.552,284.359 19.500,282.403 19.500 C 280.967 19.500,280.833 19.473,280.833 19.180 C 280.833 18.331,280.841 18.333,277.566 18.333 L 274.500 18.333 274.500 17.949 C 274.500 16.923,276.014 16.993,254.750 17.040 L 235.417 17.083 235.365 17.708 L 235.313 18.333 234.073 18.333 L 232.833 18.333 232.833 18.893 L 232.833 19.452 231.743 19.554 C 230.323 19.686,230.333 19.677,230.333 20.916 L 230.333 21.980 229.708 22.032 C 229.119 22.080,229.080 22.119,229.032 22.698 C 228.986 23.256,228.931 23.318,228.449 23.365 L 227.917 23.417 227.871 26.532 L 227.826 29.647 227.205 29.698 L 226.583 29.750 226.583 39.667 L 226.583 49.583 227.208 49.738 L 227.833 49.892 227.833 52.262 C 227.833 54.781,227.851 54.833,228.680 54.833 C 228.935 54.833,229.000 54.953,229.000 55.417 C 229.000 55.986,229.016 56.000,229.667 56.000 L 230.333 56.000 230.333 56.667 C 230.333 57.332,230.335 57.333,230.989 57.333 C 231.607 57.333,231.649 57.365,231.698 57.873 C 231.769 58.607,232.065 58.646,237.583 58.655 C 242.841 58.663,242.833 58.664,242.833 57.897 C 242.833 57.350,242.854 57.333,243.500 57.333 L 244.167 57.333 244.167 56.667 L 244.167 56.000 244.833 56.000 C 245.484 56.000,245.500 55.986,245.500 55.417 C 245.500 54.861,245.528 54.833,246.083 54.833 L 246.667 54.833 246.667 53.583 L 246.667 52.333 247.133 52.333 C 248.001 52.333,248.000 52.340,248.000 46.477 L 248.000 41.021 248.542 40.969 C 249.036 40.921,249.088 40.862,249.135 40.292 C 249.178 39.776,249.251 39.666,249.552 39.664 C 250.056 39.661,250.264 39.490,250.389 38.977 C 250.472 38.638,250.631 38.513,251.082 38.428 C 251.616 38.328,251.667 38.269,251.667 37.742 L 251.667 37.167 261.833 37.167 L 272.000 37.167 272.000 37.732 C 272.000 38.410,272.177 38.500,273.514 38.500 C 274.432 38.500,274.500 38.527,274.500 38.883 C 274.500 39.492,274.820 39.667,275.940 39.667 L 276.980 39.667 277.032 40.292 C 277.079 40.866,277.131 40.923,277.667 41.000 C 278.182 41.074,278.256 41.146,278.302 41.625 C 278.350 42.119,278.404 42.167,278.917 42.167 C 279.447 42.167,279.483 42.203,279.532 42.792 C 279.580 43.381,279.618 43.420,280.201 43.468 L 280.819 43.519 280.868 44.635 C 280.916 45.734,280.924 45.752,281.458 45.909 C 281.993 46.067,282.000 46.083,282.000 47.084 C 282.000 48.214,282.175 48.500,282.867 48.500 L 283.333 48.500 283.333 51.657 L 283.333 54.813 282.708 54.865 L 282.083 54.917 282.035 56.092 C 281.987 57.257,281.982 57.270,281.452 57.426 C 280.926 57.581,280.916 57.602,280.868 58.699 L 280.819 59.814 280.201 59.865 C 279.618 59.914,279.580 59.952,279.532 60.542 C 279.483 61.131,279.448 61.167,278.914 61.167 C 278.404 61.167,278.338 61.222,278.244 61.725 C 278.141 62.273,278.117 62.287,277.028 62.434 C 275.932 62.581,275.916 62.591,275.864 63.125 L 275.812 63.667 274.781 63.669 C 273.584 63.672,273.401 63.757,273.245 64.377 C 273.131 64.830,273.120 64.833,271.690 64.836 C 269.758 64.839,269.555 64.907,269.425 65.599 L 269.318 66.167 249.159 66.167 L 229.000 66.167 229.000 65.605 C 229.000 64.994,228.625 64.840,227.125 64.835 C 226.522 64.833,226.500 64.813,226.500 64.250 C 226.500 63.681,226.484 63.667,225.833 63.667 L 225.167 63.667 225.167 62.417 L 225.167 61.167 224.589 61.167 L 224.011 61.167 223.964 59.292 L 223.917 57.417 223.292 57.365 L 222.667 57.313 222.667 54.823 L 222.667 52.333 222.083 52.333 L 221.500 52.333 221.500 50.097 C 221.500 47.429,221.473 47.333,220.732 47.333 L 220.167 47.333 220.167 44.841 L 220.167 42.348 219.583 42.239 L 219.000 42.130 219.000 40.076 C 219.000 37.607,218.875 37.167,218.171 37.167 L 217.667 37.167 217.667 34.930 C 217.667 32.262,217.640 32.167,216.899 32.167 L 216.333 32.167 216.333 29.930 C 216.333 27.325,216.294 27.167,215.654 27.167 L 215.178 27.167 215.130 25.292 L 215.083 23.417 214.458 23.365 L 213.833 23.313 213.833 22.073 L 213.833 20.833 213.278 20.833 L 212.723 20.833 212.570 19.625 L 212.417 18.417 211.301 18.368 L 210.186 18.319 210.135 17.701 L 210.083 17.083 208.792 17.035 L 207.500 16.986 207.500 16.410 L 207.500 15.833 203.750 15.833 L 200.000 15.833 200.000 16.417 L 200.000 17.000 198.594 17.000 C 196.779 17.000,196.333 17.164,196.333 17.829 C 196.333 18.306,196.298 18.333,195.667 18.333 C 195.015 18.333,195.000 18.347,195.000 18.921 C 195.000 19.444,194.943 19.520,194.487 19.611 C 193.887 19.731,193.667 20.174,193.667 21.261 C 193.667 21.878,193.614 22.000,193.347 22.000 C 192.586 22.000,192.500 22.145,192.500 23.434 L 192.500 24.667 191.833 24.667 L 191.167 24.667 191.167 25.917 L 191.167 27.167 190.598 27.167 L 190.028 27.167 189.911 28.417 L 189.794 29.667 189.230 29.667 L 188.667 29.667 188.667 30.917 L 188.667 32.167 188.101 32.167 C 187.423 32.167,187.333 32.344,187.333 33.680 L 187.333 34.667 186.750 34.667 L 186.167 34.667 186.167 35.907 L 186.167 37.147 185.542 37.198 L 184.917 37.250 184.868 38.448 L 184.819 39.647 184.285 39.698 L 183.750 39.750 183.701 40.949 L 183.652 42.147 183.035 42.199 L 182.417 42.250 182.368 43.441 L 182.319 44.632 181.763 44.737 C 181.147 44.852,181.000 45.213,181.000 46.604 C 181.000 47.326,180.994 47.333,180.417 47.333 L 179.833 47.333 179.833 48.573 L 179.833 49.813 179.208 49.865 L 178.583 49.917 178.534 51.125 L 178.485 52.333 177.909 52.333 L 177.333 52.333 177.333 53.583 L 177.333 54.833 176.867 54.833 C 176.176 54.833,176.000 55.119,176.000 56.243 C 176.000 57.247,175.997 57.253,175.425 57.432 L 174.850 57.612 174.800 56.931 C 174.752 56.275,174.727 56.248,174.125 56.198 L 173.500 56.147 173.500 54.909 L 173.500 53.671 172.840 53.565 L 172.180 53.460 172.132 52.271 L 172.083 51.083 171.542 51.031 L 171.000 50.979 170.983 49.614 C 170.960 47.719,170.859 47.429,170.202 47.364 L 169.667 47.312 169.667 46.336 C 169.667 45.058,169.566 44.833,168.992 44.833 C 168.567 44.833,168.515 44.771,168.468 44.208 C 168.419 43.617,168.383 43.581,167.792 43.532 L 167.167 43.480 167.167 42.240 L 167.167 41.000 166.591 41.000 L 166.015 41.000 165.966 39.792 L 165.917 38.583 165.299 38.532 L 164.681 38.481 164.632 37.282 L 164.583 36.083 163.958 36.032 L 163.333 35.980 163.333 34.758 C 163.333 33.479,163.247 33.333,162.486 33.333 C 162.196 33.333,162.167 33.202,162.167 31.928 C 162.167 30.113,162.003 29.667,161.337 29.667 L 160.833 29.667 160.833 28.617 C 160.833 27.491,160.660 27.167,160.060 27.167 C 159.749 27.167,159.678 27.062,159.635 26.542 C 159.586 25.952,159.548 25.914,158.965 25.865 L 158.348 25.814 158.299 24.615 L 158.250 23.417 157.729 23.366 C 157.214 23.316,157.207 23.303,157.095 22.172 C 156.980 21.003,156.860 20.833,156.153 20.833 C 155.901 20.833,155.833 20.714,155.833 20.268 C 155.833 19.670,155.627 19.500,154.903 19.500 C 154.554 19.500,154.500 19.423,154.500 18.917 C 154.500 18.363,154.471 18.333,153.927 18.333 C 153.385 18.333,153.351 18.299,153.302 17.708 L 153.250 17.083 152.042 17.034 C 150.989 16.992,150.833 16.945,150.833 16.673 C 150.833 15.822,150.885 15.833,147.001 15.833 L 143.370 15.833 143.261 16.417 " stroke="none" fill="#FFBC23" fill-rule="evenodd"></path><path id="path1" d="M335.000 5.045 C 335.000 5.525,334.928 5.619,334.458 5.757 C 333.925 5.914,333.916 5.933,333.868 7.030 C 333.819 8.134,333.814 8.144,333.284 8.259 C 332.590 8.410,332.506 8.564,332.503 9.690 C 332.500 10.627,332.498 10.630,331.930 10.736 L 331.361 10.843 331.245 12.079 C 331.129 13.314,331.129 13.315,330.606 13.366 L 330.083 13.417 330.034 14.625 L 329.985 15.833 329.429 15.833 C 328.783 15.833,328.673 16.070,328.669 17.458 L 328.667 18.333 328.083 18.333 L 327.500 18.333 327.500 19.573 L 327.500 20.813 326.875 20.865 L 326.250 20.917 326.201 22.125 L 326.152 23.333 325.576 23.333 L 325.000 23.333 325.000 24.573 L 325.000 25.813 324.375 25.865 L 323.750 25.917 323.701 27.125 L 323.652 28.333 323.095 28.333 C 322.451 28.333,322.339 28.570,322.336 29.948 C 322.333 30.801,322.326 30.813,321.792 30.864 L 321.250 30.917 321.201 32.125 C 321.155 33.272,321.132 33.333,320.756 33.333 C 320.053 33.333,319.833 33.508,319.833 34.067 C 319.833 34.522,319.756 34.620,319.292 34.757 C 318.758 34.914,318.749 34.934,318.701 36.024 L 318.652 37.132 318.096 37.237 C 317.490 37.350,317.333 37.716,317.333 39.016 C 317.333 39.600,317.285 39.670,316.792 39.797 C 316.257 39.935,316.249 39.951,316.201 41.024 L 316.153 42.111 315.535 42.264 L 314.917 42.417 314.868 43.625 L 314.819 44.833 314.257 44.833 L 313.695 44.833 313.579 46.074 C 313.463 47.315,313.462 47.315,312.940 47.366 L 312.417 47.417 312.368 48.615 L 312.319 49.814 311.701 49.865 L 311.083 49.917 311.034 51.125 L 310.985 52.333 310.409 52.333 L 309.833 52.333 309.833 53.573 L 309.833 54.813 309.208 54.865 L 308.583 54.917 308.534 56.125 L 308.485 57.333 307.909 57.333 L 307.333 57.333 307.333 58.573 L 307.333 59.813 306.708 59.865 L 306.083 59.917 306.034 61.125 L 305.985 62.333 305.499 62.333 C 304.871 62.333,304.667 62.720,304.667 63.906 C 304.667 64.709,304.624 64.833,304.347 64.833 C 303.710 64.833,303.500 65.023,303.500 65.601 C 303.500 66.076,303.440 66.167,303.125 66.169 C 302.500 66.173,302.373 66.370,302.250 67.523 C 302.137 68.582,302.110 68.635,301.608 68.778 C 301.097 68.924,301.082 68.956,301.033 70.001 C 300.981 71.105,300.847 71.326,300.229 71.331 C 299.841 71.334,299.667 71.852,299.667 73.003 C 299.667 73.647,299.476 73.833,298.820 73.833 C 298.533 73.833,298.500 73.962,298.500 75.073 L 298.500 76.313 297.875 76.365 L 297.250 76.417 297.201 77.625 L 297.152 78.833 296.590 78.833 L 296.028 78.833 295.912 80.074 C 295.796 81.315,295.796 81.315,295.273 81.366 L 294.750 81.417 294.701 82.625 L 294.652 83.833 294.094 83.833 C 293.424 83.833,293.333 84.014,293.333 85.347 L 293.333 86.333 292.750 86.333 L 292.167 86.333 292.167 87.573 L 292.167 88.813 291.542 88.865 L 290.917 88.917 290.868 90.125 L 290.819 91.333 290.243 91.333 L 289.667 91.333 289.667 93.250 L 289.667 95.167 290.239 95.167 C 290.764 95.167,290.817 95.212,290.864 95.708 L 290.917 96.250 294.032 96.295 L 297.147 96.341 297.198 96.962 L 297.250 97.583 299.691 97.629 L 302.131 97.675 302.236 98.236 C 302.372 98.959,302.526 98.995,305.469 98.998 C 308.481 99.001,308.500 98.991,308.500 97.494 L 308.500 96.333 309.064 96.333 C 309.717 96.333,309.827 96.101,309.831 94.719 C 309.833 93.866,309.841 93.854,310.375 93.802 L 310.917 93.750 310.966 92.542 L 311.015 91.333 311.573 91.333 C 312.243 91.333,312.333 91.153,312.333 89.820 L 312.333 88.833 312.917 88.833 L 313.500 88.833 313.500 87.593 L 313.500 86.353 314.125 86.302 L 314.750 86.250 314.799 85.042 C 314.847 83.846,314.853 83.833,315.307 83.833 C 315.995 83.833,316.167 83.546,316.167 82.394 L 316.167 81.354 316.708 81.302 L 317.250 81.250 317.299 80.051 L 317.348 78.853 317.965 78.801 L 318.583 78.750 318.632 77.458 L 318.681 76.167 319.257 76.167 C 319.803 76.167,319.833 76.136,319.833 75.591 C 319.833 75.067,319.885 75.005,320.407 74.908 C 320.963 74.803,320.983 74.772,321.084 73.858 C 321.141 73.340,321.202 72.805,321.221 72.668 C 321.239 72.531,321.478 72.381,321.752 72.334 C 322.239 72.250,322.252 72.223,322.333 71.082 C 322.411 69.991,322.443 69.913,322.833 69.863 C 323.450 69.784,323.667 69.381,323.667 68.312 L 323.667 67.354 324.208 67.302 C 324.748 67.250,324.751 67.246,324.902 66.050 C 325.052 64.870,325.063 64.850,325.569 64.800 L 326.083 64.750 326.132 63.542 L 326.181 62.333 326.738 62.333 C 327.383 62.333,327.494 62.097,327.498 60.719 C 327.500 59.866,327.507 59.854,328.042 59.802 L 328.583 59.750 328.632 58.551 L 328.681 57.353 329.299 57.301 L 329.917 57.250 329.965 56.052 L 330.014 54.853 330.549 54.802 L 331.083 54.750 331.132 53.551 L 331.181 52.353 331.799 52.301 L 332.417 52.250 332.465 51.051 L 332.514 49.853 333.132 49.801 L 333.750 49.750 333.799 48.552 L 333.848 47.353 334.382 47.302 L 334.917 47.250 334.965 45.968 L 335.014 44.686 335.632 44.635 L 336.250 44.583 336.299 43.375 L 336.348 42.167 336.914 42.167 C 337.447 42.167,337.483 42.131,337.532 41.542 C 337.577 40.997,337.645 40.908,338.076 40.834 C 338.635 40.738,338.790 40.381,338.817 39.136 C 338.833 38.380,338.851 38.353,339.375 38.302 L 339.917 38.250 339.966 37.042 L 340.015 35.833 340.511 35.833 C 341.112 35.833,341.333 35.382,341.333 34.156 C 341.333 33.355,341.346 33.333,341.827 33.333 C 342.462 33.333,342.667 32.952,342.667 31.772 C 342.667 30.859,342.669 30.854,343.208 30.802 L 343.750 30.750 343.799 29.542 L 343.848 28.333 344.335 28.333 C 344.962 28.333,345.167 27.947,345.167 26.761 L 345.167 25.833 345.750 25.833 L 346.333 25.833 346.333 24.583 L 346.333 23.333 346.899 23.333 C 347.576 23.333,347.667 23.156,347.667 21.830 L 347.667 20.854 348.208 20.802 L 348.750 20.750 348.799 19.551 L 348.848 18.353 349.465 18.301 L 350.083 18.250 350.132 17.051 L 350.181 15.853 350.799 15.801 L 351.417 15.750 351.465 14.458 L 351.514 13.167 352.090 13.167 L 352.667 13.167 352.667 11.927 L 352.667 10.687 353.292 10.635 C 354.372 10.546,354.339 8.167,353.257 8.167 C 352.737 8.167,352.683 8.120,352.636 7.625 L 352.583 7.083 349.468 7.038 L 346.353 6.993 346.302 6.371 L 346.250 5.750 343.825 5.704 L 341.400 5.658 341.242 5.121 L 341.083 4.583 338.042 4.538 L 335.000 4.492 335.000 5.045 M24.667 16.398 C 24.667 16.908,24.612 16.973,24.102 17.069 C 23.464 17.189,23.339 17.455,23.336 18.708 C 23.334 19.377,23.284 19.500,23.014 19.500 C 22.262 19.500,22.167 19.651,22.167 20.851 C 22.167 21.955,22.151 22.000,21.764 22.000 C 21.040 22.000,20.833 22.170,20.833 22.768 C 20.833 23.242,20.773 23.334,20.458 23.336 C 19.832 23.340,19.706 23.537,19.581 24.708 C 19.482 25.637,19.409 25.833,19.161 25.833 C 18.430 25.833,18.333 25.991,18.333 27.184 L 18.333 28.333 17.768 28.333 C 17.090 28.333,17.000 28.510,17.000 29.847 L 17.000 30.833 16.417 30.833 C 15.847 30.833,15.833 30.849,15.833 31.500 C 15.833 32.079,15.784 32.167,15.458 32.169 C 14.768 32.174,14.604 32.422,14.531 33.572 L 14.461 34.667 13.897 34.667 L 13.333 34.667 13.333 35.907 L 13.333 37.147 12.708 37.198 C 12.119 37.247,12.080 37.285,12.032 37.865 C 11.986 38.422,11.931 38.485,11.449 38.532 C 10.920 38.583,10.916 38.591,10.770 39.783 C 10.624 40.967,10.616 40.983,10.103 41.033 L 9.583 41.083 9.535 42.282 L 9.486 43.481 8.868 43.532 C 8.287 43.580,8.247 43.620,8.199 44.198 C 8.153 44.756,8.098 44.818,7.616 44.865 L 7.083 44.917 7.034 46.125 L 6.985 47.333 6.427 47.333 C 5.757 47.333,5.667 47.514,5.667 48.847 L 5.667 49.833 5.083 49.833 L 4.500 49.833 4.500 51.566 C 4.500 53.390,4.547 53.500,5.337 53.500 C 5.574 53.500,5.659 53.646,5.698 54.125 C 5.747 54.716,5.784 54.753,6.375 54.802 L 7.000 54.853 7.000 56.093 L 7.000 57.333 7.559 57.333 L 8.118 57.333 8.222 58.446 C 8.329 59.590,8.482 59.826,9.115 59.831 C 9.416 59.833,9.489 59.943,9.532 60.458 C 9.579 61.029,9.630 61.088,10.125 61.136 C 10.664 61.188,10.667 61.192,10.667 62.105 C 10.667 63.285,10.872 63.667,11.506 63.667 L 12.000 63.667 12.000 64.717 C 12.000 65.880,12.170 66.167,12.859 66.167 C 13.310 66.167,13.319 66.187,13.367 67.292 C 13.416 68.402,13.424 68.419,13.958 68.576 C 14.423 68.713,14.500 68.811,14.500 69.267 C 14.500 69.827,14.719 70.000,15.430 70.000 C 15.818 70.000,15.833 70.045,15.833 71.149 C 15.833 72.349,15.928 72.500,16.680 72.500 C 16.930 72.500,17.000 72.619,17.002 73.042 C 17.006 74.399,17.170 74.797,17.769 74.909 C 18.281 75.005,18.333 75.069,18.333 75.591 C 18.333 76.138,18.363 76.167,18.917 76.167 L 19.500 76.167 19.500 77.178 C 19.500 78.446,19.695 78.833,20.332 78.833 C 20.816 78.833,20.818 78.838,20.867 79.958 L 20.917 81.083 21.542 81.238 C 22.108 81.378,22.167 81.445,22.167 81.946 C 22.167 82.468,22.200 82.500,22.750 82.500 L 23.333 82.500 23.333 83.750 L 23.333 85.000 24.000 85.000 L 24.667 85.000 24.667 85.667 L 24.667 86.333 36.589 86.333 L 48.511 86.333 48.464 84.543 L 48.417 82.753 47.917 82.667 C 47.495 82.594,47.404 82.490,47.333 81.999 C 47.257 81.464,47.199 81.412,46.625 81.365 L 46.000 81.313 46.000 80.073 L 46.000 78.833 45.441 78.833 L 44.882 78.833 44.780 77.743 C 44.656 76.417,44.609 76.333,43.990 76.333 C 43.529 76.333,43.500 76.293,43.500 75.667 C 43.500 75.016,43.486 75.000,42.917 75.000 L 42.333 75.000 42.333 74.014 C 42.333 72.677,42.244 72.500,41.566 72.500 L 41.000 72.500 41.000 71.572 C 41.000 70.382,40.796 70.000,40.161 70.000 C 39.695 70.000,39.667 69.961,39.667 69.333 C 39.667 68.684,39.652 68.667,39.091 68.667 L 38.515 68.667 38.466 67.458 L 38.417 66.250 37.799 66.199 L 37.181 66.147 37.132 64.949 L 37.083 63.750 36.565 63.700 C 36.055 63.650,36.045 63.631,35.946 62.568 C 35.823 61.254,35.774 61.167,35.167 61.167 C 34.732 61.167,34.682 61.107,34.635 60.542 C 34.588 59.971,34.536 59.912,34.042 59.864 C 33.512 59.813,33.500 59.794,33.500 59.000 C 33.500 57.779,33.278 57.333,32.671 57.333 L 32.167 57.333 32.167 56.345 C 32.167 55.247,31.912 54.833,31.238 54.833 C 30.889 54.833,30.833 54.755,30.833 54.268 C 30.833 53.690,30.624 53.500,29.986 53.500 C 29.691 53.500,29.667 53.363,29.667 51.685 L 29.667 49.870 30.250 49.761 L 30.833 49.652 30.833 48.503 L 30.833 47.353 31.458 47.302 L 32.083 47.250 32.132 45.968 L 32.180 44.686 32.799 44.635 C 33.361 44.588,33.421 44.535,33.469 44.042 C 33.510 43.613,33.614 43.478,33.969 43.392 C 34.577 43.243,34.661 43.070,34.664 41.958 C 34.667 41.020,34.677 41.000,35.133 41.000 C 35.829 41.000,36.000 40.716,36.000 39.561 L 36.000 38.521 36.542 38.469 C 37.036 38.421,37.088 38.362,37.135 37.792 C 37.178 37.276,37.251 37.166,37.552 37.164 C 38.230 37.159,38.396 36.907,38.469 35.771 C 38.537 34.693,38.541 34.685,39.060 34.634 L 39.583 34.583 39.632 33.385 L 39.681 32.186 40.299 32.135 C 40.882 32.086,40.920 32.048,40.968 31.458 C 41.008 30.979,41.092 30.833,41.330 30.833 C 42.026 30.833,42.147 30.660,42.262 29.495 C 42.373 28.364,42.380 28.351,42.896 28.301 L 43.417 28.250 43.465 27.051 L 43.514 25.853 44.132 25.801 L 44.750 25.750 44.799 24.542 L 44.848 23.333 45.424 23.333 C 45.985 23.333,46.000 23.316,46.000 22.667 C 46.000 22.020,46.017 22.000,46.566 22.000 C 47.244 22.000,47.333 21.823,47.333 20.486 L 47.333 19.500 47.917 19.500 L 48.500 19.500 48.500 17.667 L 48.500 15.833 36.583 15.833 L 24.667 15.833 24.667 16.398 M351.611 17.111 C 351.550 17.172,351.500 17.994,351.500 18.937 L 351.500 20.652 352.083 20.761 C 352.650 20.867,352.667 20.893,352.669 21.644 C 352.673 22.869,352.793 23.122,353.432 23.242 C 353.948 23.339,354.000 23.401,354.000 23.924 C 354.000 24.471,354.029 24.500,354.583 24.500 L 355.167 24.500 355.169 25.375 C 355.172 26.716,355.288 26.976,355.935 27.098 C 356.493 27.202,356.500 27.215,356.500 28.088 C 356.500 29.277,356.608 29.500,357.184 29.500 C 357.583 29.500,357.667 29.570,357.667 29.903 C 357.667 30.624,357.838 30.833,358.427 30.833 L 358.985 30.833 359.034 32.042 L 359.083 33.250 359.701 33.301 L 360.319 33.353 360.368 34.551 L 360.417 35.750 360.949 35.802 C 361.431 35.848,361.486 35.911,361.532 36.468 C 361.580 37.048,361.619 37.086,362.208 37.135 L 362.833 37.187 362.833 38.427 L 362.833 39.667 363.417 39.667 L 364.000 39.667 364.002 40.542 C 364.006 41.935,364.115 42.167,364.769 42.167 C 365.316 42.167,365.333 42.187,365.333 42.833 C 365.333 43.484,365.347 43.500,365.917 43.500 L 366.500 43.500 366.502 44.375 C 366.506 45.764,366.616 46.000,367.262 46.000 L 367.819 46.000 367.868 47.208 L 367.917 48.417 368.542 48.468 L 369.167 48.520 369.167 49.560 C 369.167 50.680,369.341 51.000,369.950 51.000 C 370.278 51.000,370.333 51.086,370.333 51.589 C 370.333 51.972,370.425 52.212,370.597 52.278 C 370.802 52.357,370.813 52.409,370.648 52.512 C 370.522 52.589,370.405 53.096,370.364 53.739 L 370.295 54.833 369.731 54.833 L 369.167 54.833 369.167 56.083 L 369.167 57.333 368.500 57.333 C 367.835 57.333,367.833 57.335,367.833 57.989 C 367.833 58.608,367.802 58.649,367.292 58.698 C 366.751 58.750,366.750 58.753,366.603 59.949 C 366.458 61.134,366.449 61.149,365.936 61.199 L 365.417 61.250 365.368 62.449 L 365.319 63.647 364.701 63.699 C 364.120 63.747,364.080 63.787,364.032 64.365 C 363.986 64.922,363.931 64.985,363.449 65.032 L 362.917 65.083 362.868 66.292 L 362.819 67.500 362.261 67.500 C 361.591 67.500,361.500 67.680,361.500 69.014 L 361.500 70.000 360.917 70.000 L 360.333 70.000 360.333 71.250 L 360.333 72.500 359.667 72.500 C 359.018 72.500,359.000 72.515,359.000 73.076 C 359.000 73.599,358.948 73.661,358.429 73.759 L 357.859 73.866 357.743 75.099 L 357.628 76.333 357.064 76.333 L 356.500 76.333 356.500 77.573 L 356.500 78.813 355.875 78.865 C 355.310 78.912,355.245 78.967,355.199 79.437 C 355.158 79.861,355.050 79.985,354.616 80.109 C 354.092 80.259,354.083 80.280,354.034 81.381 C 353.986 82.479,353.976 82.500,353.526 82.500 C 352.837 82.500,352.667 82.787,352.667 83.950 C 352.667 84.874,352.628 85.000,352.347 85.000 C 351.595 85.000,351.500 85.151,351.500 86.351 L 351.500 87.500 363.417 87.500 L 375.333 87.500 375.333 86.927 C 375.333 86.385,375.367 86.351,375.958 86.302 C 376.549 86.253,376.586 86.216,376.635 85.625 C 376.675 85.146,376.759 85.000,376.996 85.000 C 377.694 85.000,377.814 84.827,377.930 83.652 L 378.043 82.500 378.605 82.500 L 379.167 82.500 379.167 81.260 L 379.167 80.020 379.792 79.968 C 380.383 79.919,380.419 79.883,380.468 79.292 C 380.515 78.729,380.567 78.667,380.992 78.667 C 381.567 78.667,381.667 78.443,381.667 77.153 L 381.667 76.167 382.231 76.167 C 382.885 76.167,382.994 75.935,382.998 74.542 L 383.000 73.667 383.583 73.667 L 384.167 73.667 384.167 72.417 L 384.167 71.167 384.833 71.167 C 385.480 71.167,385.500 71.150,385.500 70.602 C 385.500 70.092,385.555 70.027,386.065 69.931 C 386.702 69.812,386.827 69.545,386.831 68.302 C 386.833 67.543,386.849 67.520,387.375 67.469 L 387.917 67.417 387.965 66.135 L 388.014 64.853 388.632 64.801 C 389.195 64.755,389.255 64.702,389.302 64.209 C 389.344 63.780,389.447 63.645,389.802 63.558 C 390.411 63.409,390.494 63.237,390.497 62.125 C 390.500 61.268,390.537 61.167,390.844 61.167 C 391.639 61.167,391.833 60.889,391.833 59.755 L 391.833 58.688 392.375 58.636 C 392.870 58.588,392.921 58.529,392.968 57.958 C 393.011 57.443,393.084 57.333,393.385 57.331 C 394.065 57.326,394.229 57.074,394.302 55.928 C 394.367 54.915,394.401 54.833,394.758 54.833 C 395.484 54.833,395.667 54.436,395.667 52.855 C 395.667 51.266,395.543 51.000,394.807 51.000 C 394.353 51.000,394.347 50.988,394.299 49.792 L 394.250 48.583 393.632 48.532 L 393.015 48.481 392.966 47.365 C 392.917 46.266,392.909 46.248,392.375 46.091 C 391.906 45.953,391.833 45.857,391.833 45.384 C 391.833 44.875,391.787 44.830,391.167 44.731 L 390.500 44.624 390.500 43.497 C 390.500 42.326,390.401 42.167,389.672 42.167 C 389.421 42.167,389.361 41.990,389.302 41.072 C 389.229 39.922,389.065 39.674,388.375 39.669 C 388.030 39.667,388.000 39.590,387.997 38.708 C 387.994 37.590,387.903 37.399,387.299 37.248 C 386.949 37.160,386.841 37.021,386.801 36.609 C 386.755 36.134,386.691 36.078,386.132 36.032 L 385.514 35.981 385.465 34.782 L 385.417 33.583 384.799 33.431 L 384.181 33.278 384.132 32.182 C 384.084 31.108,384.073 31.084,383.583 31.000 C 383.161 30.928,383.070 30.823,383.000 30.332 C 382.923 29.797,382.866 29.746,382.292 29.698 L 381.667 29.647 381.667 28.407 L 381.667 27.167 381.083 27.167 L 380.500 27.167 380.498 26.292 C 380.494 24.899,380.385 24.667,379.731 24.667 C 379.184 24.667,379.167 24.646,379.167 24.000 C 379.167 23.349,379.153 23.333,378.583 23.333 L 378.000 23.333 378.000 22.347 C 378.000 21.010,377.910 20.833,377.232 20.833 L 376.667 20.833 376.667 19.847 C 376.667 18.510,376.577 18.333,375.899 18.333 C 375.350 18.333,375.333 18.313,375.333 17.667 L 375.333 17.000 363.528 17.000 C 357.035 17.000,351.672 17.050,351.611 17.111 " stroke="none" fill="#142544" fill-rule="evenodd"></path><path id="path2" d="" stroke="none" fill="#142544" fill-rule="evenodd"></path><path id="path3" d="" stroke="none" fill="#f8e0100" fill-rule="evenodd"></path><path id="path4" d="" stroke="none" fill="#f8e0100" fill-rule="evenodd"></path></g></svg>